<?xml version="1.0" encoding="UTF-8" standalone="no"?>
<!DOCTYPE svg PUBLIC "-//W3C//DTD SVG 1.1//EN" "http://www.w3.org/Graphics/SVG/1.1/DTD/svg11.dtd">
<svg width="100%" height="100%" viewBox="0 0 20 20" version="1.1" xmlns="http://www.w3.org/2000/svg" xmlns:xlink="http://www.w3.org/1999/xlink" xml:space="preserve" xmlns:serif="http://www.serif.com/" style="fill-rule:evenodd;clip-rule:evenodd;stroke-linecap:square;stroke-linejoin:round;stroke-miterlimit:1.5;">
    <g transform="matrix(0.714286,0,0,0.571429,0,2)">
        <path d="M26,7L26,21C26,22.656 24.925,24 23.6,24L4.4,24C3.075,24 2,22.656 2,21L2,7C2,5.344 3.075,4 4.4,4L23.6,4C24.925,4 26,5.344 26,7ZM24.75,7C24.75,6.207 24.235,5.563 23.6,5.563L4.4,5.563C3.765,5.563 3.25,6.207 3.25,7L3.25,21C3.25,21.793 3.765,22.438 4.4,22.438L23.6,22.438C24.235,22.438 24.75,21.793 24.75,21L24.75,7Z" style="fill:white;"/>
    </g>
    <g transform="matrix(0.714286,0,0,0.714286,0,14.2857)">
        <path d="M14,4L14,2" style="fill:none;stroke:white;stroke-width:1.25px;"/>
    </g>
    <g transform="matrix(0.714286,0,0,0.714286,-2.85714,14.2857)">
        <path d="M14,4L14,2" style="fill:none;stroke:white;stroke-width:1.25px;"/>
    </g>
    <g transform="matrix(0.714286,0,0,0.714286,-5.71429,14.2857)">
        <path d="M14,4L14,2" style="fill:none;stroke:white;stroke-width:1.25px;"/>
    </g>
    <g transform="matrix(0.714286,0,0,0.714286,2.85714,14.2857)">
        <path d="M14,4L14,2" style="fill:none;stroke:white;stroke-width:1.25px;"/>
    </g>
    <g transform="matrix(0.714286,0,0,0.714286,5.71429,14.2857)">
        <path d="M14,4L14,2" style="fill:none;stroke:white;stroke-width:1.25px;"/>
    </g>
    <g transform="matrix(0.714286,0,0,0.714286,0,1.42857)">
        <path d="M14,4L14,2" style="fill:none;stroke:white;stroke-width:1.25px;"/>
    </g>
    <g transform="matrix(0.714286,0,0,0.714286,-2.85714,1.42857)">
        <path d="M14,4L14,2" style="fill:none;stroke:white;stroke-width:1.25px;"/>
    </g>
    <g transform="matrix(0.714286,0,0,0.714286,-5.71429,1.42857)">
        <path d="M14,4L14,2" style="fill:none;stroke:white;stroke-width:1.25px;"/>
    </g>
    <g transform="matrix(0.714286,0,0,0.714286,2.85714,1.42857)">
        <path d="M14,4L14,2" style="fill:none;stroke:white;stroke-width:1.25px;"/>
    </g>
    <g transform="matrix(0.714286,0,0,0.714286,5.71429,1.42857)">
        <path d="M14,4L14,2" style="fill:none;stroke:white;stroke-width:1.25px;"/>
    </g>
    <g transform="matrix(0.055954,0,0,0.055954,-0.683738,-6.21681)">
        <g transform="matrix(153.565,0,0,153.565,138,341)">
            <path d="M0.166,-0.329C0.122,-0.329 0.088,-0.345 0.064,-0.378C0.04,-0.411 0.028,-0.452 0.028,-0.5C0.028,-0.548 0.04,-0.589 0.064,-0.622C0.087,-0.655 0.121,-0.671 0.166,-0.671C0.21,-0.671 0.244,-0.655 0.268,-0.622C0.292,-0.589 0.304,-0.549 0.304,-0.5C0.304,-0.451 0.292,-0.41 0.268,-0.378C0.244,-0.345 0.21,-0.329 0.166,-0.329ZM0.167,-0.611C0.148,-0.611 0.136,-0.603 0.128,-0.587C0.121,-0.571 0.118,-0.542 0.118,-0.501C0.118,-0.46 0.121,-0.432 0.128,-0.415C0.136,-0.399 0.148,-0.391 0.166,-0.391C0.184,-0.391 0.196,-0.399 0.204,-0.415C0.211,-0.431 0.215,-0.459 0.215,-0.498C0.215,-0.541 0.211,-0.571 0.204,-0.587C0.197,-0.603 0.184,-0.611 0.167,-0.611ZM0.122,-0L0.491,-0.667L0.565,-0.667L0.195,-0L0.122,-0ZM0.523,0.005C0.479,0.005 0.445,-0.012 0.421,-0.045C0.397,-0.078 0.385,-0.118 0.385,-0.167C0.385,-0.215 0.397,-0.256 0.421,-0.289C0.444,-0.321 0.478,-0.338 0.523,-0.338C0.567,-0.338 0.601,-0.321 0.625,-0.288C0.649,-0.255 0.661,-0.215 0.661,-0.167C0.661,-0.118 0.649,-0.077 0.625,-0.044C0.601,-0.011 0.567,0.005 0.523,0.005ZM0.524,-0.278C0.507,-0.278 0.495,-0.271 0.487,-0.257C0.479,-0.242 0.475,-0.213 0.475,-0.167C0.475,-0.126 0.478,-0.098 0.486,-0.082C0.493,-0.065 0.506,-0.057 0.523,-0.057C0.541,-0.057 0.553,-0.065 0.561,-0.082C0.568,-0.098 0.572,-0.125 0.572,-0.164C0.572,-0.207 0.568,-0.237 0.561,-0.253C0.554,-0.27 0.541,-0.278 0.524,-0.278Z" style="fill:white;fill-rule:nonzero;"/>
        </g>
    </g>
</svg>
