<?xml version="1.0" encoding="UTF-8" standalone="no"?>
<!DOCTYPE svg PUBLIC "-//W3C//DTD SVG 1.1//EN" "http://www.w3.org/Graphics/SVG/1.1/DTD/svg11.dtd">
<svg width="100%" height="100%" viewBox="0 0 288 288" version="1.1" xmlns="http://www.w3.org/2000/svg" xmlns:xlink="http://www.w3.org/1999/xlink" xml:space="preserve" xmlns:serif="http://www.serif.com/" style="fill-rule:evenodd;clip-rule:evenodd;stroke-linecap:square;stroke-linejoin:round;stroke-miterlimit:1.5;">
    <g transform="matrix(1.60084,0,0,1.73182,-93.9832,-80.8102)">
        <rect x="58.709" y="46.662" width="179.906" height="166.299" style="fill:rgb(10,20,35);"/>
    </g>
    <g transform="matrix(0.512077,0,0,0.5,-2.97826,0)">
        <g transform="matrix(1.05055,0,0,1.05545,-21.4412,-29.6484)">
            <path d="M491.591,187.548L491.591,414.37C491.591,441.196 470.226,462.975 443.911,462.975L145.192,462.975C118.876,462.975 97.512,441.196 97.512,414.37L97.512,187.548C97.512,160.723 118.876,138.944 145.192,138.944L443.911,138.944C470.226,138.944 491.591,160.723 491.591,187.548ZM468.355,187.548C468.355,173.796 457.402,162.63 443.911,162.63L145.192,162.63C131.701,162.63 120.748,173.796 120.748,187.548L120.748,414.37C120.748,428.123 131.701,439.289 145.192,439.289L443.911,439.289C457.402,439.289 468.355,428.123 468.355,414.37L468.355,187.548Z" style="fill:rgb(61,110,224);"/>
        </g>
        <g transform="matrix(1,0,0,0.824526,0,20.8096)">
            <path d="M288,116.661L288,73" style="fill:none;stroke:rgb(61,110,224);stroke-width:26.89px;"/>
        </g>
        <g transform="matrix(1,0,0,0.824526,-70,20.8096)">
            <path d="M288,116.661L288,73" style="fill:none;stroke:rgb(61,110,224);stroke-width:26.89px;"/>
        </g>
        <g transform="matrix(1,0,0,0.824526,-140,20.8096)">
            <path d="M288,116.661L288,73" style="fill:none;stroke:rgb(61,110,224);stroke-width:26.89px;"/>
        </g>
        <g transform="matrix(1,0,0,0.824526,70,20.8096)">
            <path d="M288,116.661L288,73" style="fill:none;stroke:rgb(61,110,224);stroke-width:26.89px;"/>
        </g>
        <g transform="matrix(1,0,0,0.824526,140,20.8096)">
            <path d="M288,116.661L288,73" style="fill:none;stroke:rgb(61,110,224);stroke-width:26.89px;"/>
        </g>
        <g transform="matrix(1,0,0,0.824526,0,398.81)">
            <path d="M288,116.661L288,73" style="fill:none;stroke:rgb(61,110,224);stroke-width:26.89px;"/>
        </g>
        <g transform="matrix(1,0,0,0.824526,-70,398.81)">
            <path d="M288,116.661L288,73" style="fill:none;stroke:rgb(61,110,224);stroke-width:26.89px;"/>
        </g>
        <g transform="matrix(1,0,0,0.824526,-140,398.81)">
            <path d="M288,116.661L288,73" style="fill:none;stroke:rgb(61,110,224);stroke-width:26.89px;"/>
        </g>
        <g transform="matrix(1,0,0,0.824526,70,398.81)">
            <path d="M288,116.661L288,73" style="fill:none;stroke:rgb(61,110,224);stroke-width:26.89px;"/>
        </g>
        <g transform="matrix(1,0,0,0.824526,140,398.81)">
            <path d="M288,116.661L288,73" style="fill:none;stroke:rgb(61,110,224);stroke-width:26.89px;"/>
        </g>
    </g>
</svg>
